<mxfile host="app.diagrams.net" agent="Mozilla/5.0 (Windows NT 10.0; Win64; x64) AppleWebKit/537.36 (KHTML, like Gecko) Chrome/135.0.0.0 Safari/537.36 Edg/135.0.0.0" version="26.2.9">
  <diagram name="Page-1" id="a6hCzc8yaD9OQVKGl5Rp">
    <mxGraphModel dx="2327" dy="671" grid="1" gridSize="10" guides="1" tooltips="1" connect="1" arrows="1" fold="1" page="1" pageScale="1" pageWidth="827" pageHeight="1169" math="0" shadow="0">
      <root>
        <mxCell id="0" />
        <mxCell id="1" parent="0" />
        <mxCell id="bGmUU4ZswMITXSUrsaft-55" value="&lt;b&gt;PROVEEDORES ( &lt;/b&gt;&lt;font style=&quot;color: rgb(255, 51, 51);&quot;&gt;idProveedor&lt;/font&gt;, nombre, direccion, telefono, &lt;font style=&quot;color: rgb(0, 0, 255);&quot;&gt;correo&lt;/font&gt;&lt;b&gt;&amp;nbsp;)&lt;/b&gt;" style="text;html=1;align=center;verticalAlign=middle;resizable=0;points=[];autosize=1;" parent="1" vertex="1">
          <mxGeometry x="30" y="310" width="390" height="30" as="geometry" />
        </mxCell>
        <mxCell id="bGmUU4ZswMITXSUrsaft-56" value="&lt;b&gt;PRODUCTOS ( &lt;/b&gt;&lt;font style=&quot;color: rgb(255, 51, 51);&quot;&gt;i&lt;/font&gt;&lt;font style=&quot;color: rgb(255, 51, 51);&quot;&gt;dProducto&lt;/font&gt;, descripcion&lt;b&gt;&amp;nbsp;)&lt;/b&gt;" style="text;html=1;align=center;verticalAlign=middle;resizable=0;points=[];autosize=1;" parent="1" vertex="1">
          <mxGeometry x="110" y="450" width="240" height="30" as="geometry" />
        </mxCell>
        <mxCell id="bGmUU4ZswMITXSUrsaft-57" style="edgeStyle=orthogonalEdgeStyle;rounded=0;orthogonalLoop=1;jettySize=auto;html=1;strokeColor=#009900;" parent="1" edge="1">
          <mxGeometry relative="1" as="geometry">
            <mxPoint x="240" y="457" as="targetPoint" />
            <mxPoint x="272" y="402" as="sourcePoint" />
            <Array as="points">
              <mxPoint x="272" y="420" />
              <mxPoint x="240" y="420" />
            </Array>
          </mxGeometry>
        </mxCell>
        <mxCell id="bGmUU4ZswMITXSUrsaft-58" style="edgeStyle=orthogonalEdgeStyle;rounded=0;orthogonalLoop=1;jettySize=auto;html=1;strokeColor=#009900;" parent="1" edge="1">
          <mxGeometry relative="1" as="geometry">
            <mxPoint x="180" y="334" as="targetPoint" />
            <mxPoint x="200" y="388" as="sourcePoint" />
            <Array as="points">
              <mxPoint x="200" y="360" />
              <mxPoint x="180" y="360" />
            </Array>
          </mxGeometry>
        </mxCell>
        <mxCell id="bGmUU4ZswMITXSUrsaft-59" value="&lt;b&gt;PRECIOS ( &lt;/b&gt;&lt;font style=&quot;color: rgb(255, 51, 51);&quot;&gt;idProveedor&lt;/font&gt;, &lt;font style=&quot;color: rgb(255, 51, 51);&quot;&gt;idProducto&lt;/font&gt;, precio&lt;b&gt;&amp;nbsp;)&lt;/b&gt;" style="text;html=1;align=center;verticalAlign=middle;resizable=0;points=[];autosize=1;" parent="1" vertex="1">
          <mxGeometry x="90" y="380" width="260" height="30" as="geometry" />
        </mxCell>
        <mxCell id="bGmUU4ZswMITXSUrsaft-60" style="edgeStyle=orthogonalEdgeStyle;rounded=0;orthogonalLoop=1;jettySize=auto;html=1;strokeColor=#009900;" parent="1" edge="1">
          <mxGeometry relative="1" as="geometry">
            <mxPoint x="110" y="646" as="targetPoint" />
            <mxPoint x="258" y="591" as="sourcePoint" />
            <Array as="points">
              <mxPoint x="258" y="600" />
              <mxPoint x="110" y="600" />
            </Array>
          </mxGeometry>
        </mxCell>
        <mxCell id="bGmUU4ZswMITXSUrsaft-61" style="edgeStyle=orthogonalEdgeStyle;rounded=0;orthogonalLoop=1;jettySize=auto;html=1;strokeColor=#009900;" parent="1" edge="1">
          <mxGeometry relative="1" as="geometry">
            <mxPoint x="241" y="473" as="targetPoint" />
            <mxPoint x="320" y="578" as="sourcePoint" />
            <Array as="points">
              <mxPoint x="320" y="528" />
              <mxPoint x="320" y="500" />
              <mxPoint x="241" y="500" />
            </Array>
          </mxGeometry>
        </mxCell>
        <mxCell id="bGmUU4ZswMITXSUrsaft-62" value="&lt;b&gt;DetalleDePedidos ( &lt;/b&gt;&lt;font style=&quot;color: rgb(255, 51, 51);&quot;&gt;idDetalle&lt;/font&gt;, cantidad, precio, &lt;font style=&quot;color: rgb(255, 51, 51);&quot;&gt;idPedido&lt;/font&gt;, idProducto&lt;b&gt;&amp;nbsp;)&lt;/b&gt;" style="text;html=1;align=center;verticalAlign=middle;resizable=0;points=[];autosize=1;" parent="1" vertex="1">
          <mxGeometry x="-40" y="570" width="400" height="30" as="geometry" />
        </mxCell>
        <mxCell id="bGmUU4ZswMITXSUrsaft-63" style="edgeStyle=orthogonalEdgeStyle;rounded=0;orthogonalLoop=1;jettySize=auto;html=1;strokeColor=#009900;" parent="1" edge="1">
          <mxGeometry relative="1" as="geometry">
            <mxPoint x="161" y="334" as="targetPoint" />
            <mxPoint x="250" y="648" as="sourcePoint" />
            <Array as="points">
              <mxPoint x="250" y="620" />
              <mxPoint x="-110" y="620" />
              <mxPoint x="-110" y="370" />
              <mxPoint x="161" y="370" />
            </Array>
          </mxGeometry>
        </mxCell>
        <mxCell id="bGmUU4ZswMITXSUrsaft-64" style="edgeStyle=orthogonalEdgeStyle;rounded=0;orthogonalLoop=1;jettySize=auto;html=1;strokeColor=#009900;" parent="1" edge="1">
          <mxGeometry relative="1" as="geometry">
            <mxPoint x="590" y="404" as="targetPoint" />
            <mxPoint x="320" y="648" as="sourcePoint" />
            <Array as="points">
              <mxPoint x="320" y="610" />
              <mxPoint x="440" y="610" />
              <mxPoint x="440" y="460" />
              <mxPoint x="590" y="460" />
            </Array>
          </mxGeometry>
        </mxCell>
        <mxCell id="bGmUU4ZswMITXSUrsaft-65" value="&lt;b&gt;PEDIDOS ( &lt;/b&gt;&lt;font style=&quot;color: rgb(255, 51, 51);&quot;&gt;idPedido&lt;/font&gt;, fecha, estado, idProveedor, idEmpleado&lt;b&gt; )&lt;/b&gt;" style="text;html=1;align=center;verticalAlign=middle;resizable=0;points=[];autosize=1;" parent="1" vertex="1">
          <mxGeometry x="10" y="640" width="360" height="30" as="geometry" />
        </mxCell>
        <mxCell id="bGmUU4ZswMITXSUrsaft-66" style="edgeStyle=orthogonalEdgeStyle;rounded=0;orthogonalLoop=1;jettySize=auto;html=1;strokeColor=#009900;" parent="1" edge="1">
          <mxGeometry relative="1" as="geometry">
            <mxPoint x="230" y="473" as="targetPoint" />
            <mxPoint x="210" y="528" as="sourcePoint" />
            <Array as="points">
              <mxPoint x="210" y="500" />
              <mxPoint x="230" y="500" />
            </Array>
          </mxGeometry>
        </mxCell>
        <mxCell id="bGmUU4ZswMITXSUrsaft-67" style="edgeStyle=orthogonalEdgeStyle;rounded=0;orthogonalLoop=1;jettySize=auto;html=1;strokeColor=#009900;" parent="1" edge="1">
          <mxGeometry relative="1" as="geometry">
            <mxPoint x="580" y="558" as="targetPoint" />
            <mxPoint x="270" y="528" as="sourcePoint" />
            <Array as="points">
              <mxPoint x="270" y="520" />
              <mxPoint x="580" y="520" />
            </Array>
          </mxGeometry>
        </mxCell>
        <mxCell id="bGmUU4ZswMITXSUrsaft-69" value="&lt;b&gt;DetalleDeVentas ( &lt;/b&gt;&lt;font style=&quot;color: rgb(255, 51, 51);&quot;&gt;idDetalleVenta&lt;/font&gt;, cantidad, precio, idProducto, &lt;font style=&quot;color: rgb(255, 51, 51);&quot;&gt;idVenta&lt;/font&gt;&lt;b&gt;&amp;nbsp;)&lt;/b&gt;" style="text;html=1;align=center;verticalAlign=middle;resizable=0;points=[];autosize=1;" parent="1" vertex="1">
          <mxGeometry x="-110" y="520" width="410" height="30" as="geometry" />
        </mxCell>
        <mxCell id="bGmUU4ZswMITXSUrsaft-70" style="edgeStyle=orthogonalEdgeStyle;rounded=0;orthogonalLoop=1;jettySize=auto;html=1;strokeColor=#009900;" parent="1" edge="1">
          <mxGeometry relative="1" as="geometry">
            <mxPoint x="610" y="323" as="targetPoint" />
            <mxPoint x="660" y="558" as="sourcePoint" />
            <Array as="points">
              <mxPoint x="660" y="540" />
              <mxPoint x="1080" y="540" />
              <mxPoint x="1080" y="360" />
              <mxPoint x="610" y="360" />
            </Array>
          </mxGeometry>
        </mxCell>
        <mxCell id="bGmUU4ZswMITXSUrsaft-71" style="edgeStyle=orthogonalEdgeStyle;rounded=0;orthogonalLoop=1;jettySize=auto;html=1;strokeColor=#009900;" parent="1" edge="1">
          <mxGeometry relative="1" as="geometry">
            <mxPoint x="570" y="404" as="targetPoint" />
            <mxPoint x="730" y="558" as="sourcePoint" />
            <Array as="points">
              <mxPoint x="730" y="530" />
              <mxPoint x="490" y="530" />
              <mxPoint x="490" y="440" />
              <mxPoint x="570" y="440" />
            </Array>
          </mxGeometry>
        </mxCell>
        <mxCell id="bGmUU4ZswMITXSUrsaft-72" style="edgeStyle=orthogonalEdgeStyle;rounded=0;orthogonalLoop=1;jettySize=auto;html=1;strokeColor=#009900;" parent="1" edge="1">
          <mxGeometry relative="1" as="geometry">
            <mxPoint x="580" y="626" as="targetPoint" />
            <mxPoint x="790" y="572" as="sourcePoint" />
            <Array as="points">
              <mxPoint x="790" y="600" />
              <mxPoint x="580" y="600" />
            </Array>
          </mxGeometry>
        </mxCell>
        <mxCell id="bGmUU4ZswMITXSUrsaft-73" style="edgeStyle=orthogonalEdgeStyle;rounded=0;orthogonalLoop=1;jettySize=auto;html=1;strokeColor=#009900;" parent="1" edge="1">
          <mxGeometry relative="1" as="geometry">
            <mxPoint x="651" y="492" as="targetPoint" />
            <mxPoint x="850" y="558" as="sourcePoint" />
            <Array as="points">
              <mxPoint x="850" y="520" />
              <mxPoint x="651" y="520" />
            </Array>
          </mxGeometry>
        </mxCell>
        <mxCell id="bGmUU4ZswMITXSUrsaft-74" value="&lt;b&gt;VENTAS (&lt;font style=&quot;color: rgb(255, 51, 51);&quot;&gt; &lt;/font&gt;&lt;/b&gt;&lt;font style=&quot;color: rgb(255, 51, 51);&quot;&gt;idVenta&lt;/font&gt;, fecha, idCliente,&amp;nbsp;&lt;b&gt;&amp;nbsp;&lt;/b&gt;idEmpleado, idFactura,&lt;font style=&quot;color: rgb(255, 128, 0);&quot;&gt; idEnvio !&amp;nbsp;&lt;/font&gt;&lt;b&gt;)&lt;/b&gt;" style="text;html=1;align=center;verticalAlign=middle;resizable=0;points=[];autosize=1;" parent="1" vertex="1">
          <mxGeometry x="485" y="550" width="400" height="30" as="geometry" />
        </mxCell>
        <mxCell id="bGmUU4ZswMITXSUrsaft-75" value="&lt;b&gt;CLIENTES ( &lt;/b&gt;&lt;font style=&quot;color: rgb(255, 51, 51);&quot;&gt;idCliente&lt;/font&gt;, tipo, &lt;font style=&quot;color: rgb(0, 0, 255);&quot;&gt;numero,&amp;nbsp;&lt;/font&gt;nombre, &lt;font style=&quot;color: rgb(255, 128, 0);&quot;&gt;direccion !&lt;/font&gt;, telefono, &lt;font style=&quot;color: rgb(0, 0, 255);&quot;&gt;correo&lt;/font&gt;, fechaNacimiento&lt;b&gt;&amp;nbsp;)&lt;/b&gt;" style="text;html=1;align=center;verticalAlign=middle;resizable=0;points=[];autosize=1;" parent="1" vertex="1">
          <mxGeometry x="500" y="300" width="520" height="30" as="geometry" />
        </mxCell>
        <mxCell id="bGmUU4ZswMITXSUrsaft-76" value="&lt;b&gt;ENVIOS ( &lt;/b&gt;&lt;font style=&quot;color: rgb(255, 51, 51);&quot;&gt;idEnvio&lt;/font&gt;, fechaEnvio, empresaTransporte, costoEnvio, estado, direccionEnvio&lt;b&gt;&amp;nbsp;)&lt;/b&gt;" style="text;html=1;align=center;verticalAlign=middle;resizable=0;points=[];autosize=1;" parent="1" vertex="1">
          <mxGeometry x="560" y="470" width="500" height="30" as="geometry" />
        </mxCell>
        <mxCell id="bGmUU4ZswMITXSUrsaft-77" value="&lt;b&gt;FACTURAS ( &lt;/b&gt;&lt;font style=&quot;color: rgb(255, 51, 51);&quot;&gt;idFactura&lt;/font&gt;, fecha&lt;b&gt;&amp;nbsp;)&lt;/b&gt;" style="text;html=1;align=center;verticalAlign=middle;resizable=0;points=[];autosize=1;strokeColor=none;fillColor=none;" parent="1" vertex="1">
          <mxGeometry x="470" y="620" width="190" height="30" as="geometry" />
        </mxCell>
        <mxCell id="bGmUU4ZswMITXSUrsaft-78" style="edgeStyle=orthogonalEdgeStyle;rounded=0;orthogonalLoop=1;jettySize=auto;html=1;strokeColor=#009900;" parent="1" edge="1">
          <mxGeometry relative="1" as="geometry">
            <mxPoint x="570" y="643" as="targetPoint" />
            <mxPoint x="620" y="718" as="sourcePoint" />
            <Array as="points">
              <mxPoint x="620" y="690" />
              <mxPoint x="570" y="690" />
            </Array>
          </mxGeometry>
        </mxCell>
        <mxCell id="bGmUU4ZswMITXSUrsaft-79" value="&lt;b&gt;ELECTRONICAS ( &lt;/b&gt;&lt;font style=&quot;color: rgb(0, 0, 255);&quot;&gt;correo&lt;/font&gt;, nombreEmpresa, &lt;font style=&quot;color: rgb(255, 51, 51);&quot;&gt;idFactura&lt;/font&gt;&lt;b&gt;&lt;font style=&quot;color: rgb(255, 51, 51);&quot;&gt; &lt;/font&gt;)&lt;/b&gt;" style="text;html=1;align=center;verticalAlign=middle;resizable=0;points=[];autosize=1;strokeColor=none;fillColor=none;" parent="1" vertex="1">
          <mxGeometry x="340" y="710" width="320" height="30" as="geometry" />
        </mxCell>
        <mxCell id="bGmUU4ZswMITXSUrsaft-80" style="edgeStyle=orthogonalEdgeStyle;rounded=0;orthogonalLoop=1;jettySize=auto;html=1;strokeColor=#009900;" parent="1" edge="1">
          <mxGeometry relative="1" as="geometry">
            <mxPoint x="590" y="643" as="targetPoint" />
            <mxPoint x="900" y="688" as="sourcePoint" />
            <Array as="points">
              <mxPoint x="900" y="670" />
              <mxPoint x="590" y="670" />
              <mxPoint x="590" y="644" />
            </Array>
          </mxGeometry>
        </mxCell>
        <mxCell id="bGmUU4ZswMITXSUrsaft-81" value="&lt;b&gt;FISICAS ( &lt;/b&gt;telefono, &lt;font style=&quot;color: rgb(255, 51, 51);&quot;&gt;idFactura&lt;/font&gt;&lt;b&gt;&amp;nbsp;)&lt;/b&gt;" style="text;html=1;align=center;verticalAlign=middle;resizable=0;points=[];autosize=1;strokeColor=none;fillColor=none;" parent="1" vertex="1">
          <mxGeometry x="750" y="680" width="190" height="30" as="geometry" />
        </mxCell>
        <mxCell id="bGmUU4ZswMITXSUrsaft-82" style="edgeStyle=orthogonalEdgeStyle;rounded=0;orthogonalLoop=1;jettySize=auto;html=1;strokeColor=#009900;" parent="1" edge="1">
          <mxGeometry relative="1" as="geometry">
            <mxPoint x="250.00000000000045" y="457" as="targetPoint" />
            <mxPoint x="850" y="249" as="sourcePoint" />
            <Array as="points">
              <mxPoint x="850" y="260" />
              <mxPoint x="440" y="260" />
              <mxPoint x="440" y="430" />
              <mxPoint x="250" y="430" />
            </Array>
          </mxGeometry>
        </mxCell>
        <mxCell id="bGmUU4ZswMITXSUrsaft-83" style="edgeStyle=orthogonalEdgeStyle;rounded=0;orthogonalLoop=1;jettySize=auto;html=1;strokeColor=#009900;" parent="1" edge="1">
          <mxGeometry relative="1" as="geometry">
            <mxPoint x="611" y="307" as="targetPoint" />
            <mxPoint x="790" y="249" as="sourcePoint" />
            <Array as="points">
              <mxPoint x="790" y="280" />
              <mxPoint x="611" y="280" />
              <mxPoint x="611" y="290" />
            </Array>
          </mxGeometry>
        </mxCell>
        <mxCell id="bGmUU4ZswMITXSUrsaft-84" value="&lt;b&gt;VALORACIONES ( &lt;/b&gt;&lt;font style=&quot;color: rgb(255, 51, 51);&quot;&gt;idValoracion&lt;/font&gt;, calificacion, comentario, fecha, idCliente, idProducto&lt;b&gt;&amp;nbsp;)&lt;/b&gt;" style="text;html=1;align=center;verticalAlign=middle;resizable=0;points=[];autosize=1;" parent="1" vertex="1">
          <mxGeometry x="410" y="228" width="490" height="30" as="geometry" />
        </mxCell>
        <mxCell id="bGmUU4ZswMITXSUrsaft-85" style="edgeStyle=orthogonalEdgeStyle;rounded=0;orthogonalLoop=1;jettySize=auto;html=1;strokeColor=#009900;" parent="1" edge="1">
          <mxGeometry relative="1" as="geometry">
            <mxPoint x="970" y="439" as="targetPoint" />
            <mxPoint x="870" y="402" as="sourcePoint" />
            <Array as="points">
              <mxPoint x="870" y="420" />
              <mxPoint x="970" y="420" />
            </Array>
          </mxGeometry>
        </mxCell>
        <mxCell id="bGmUU4ZswMITXSUrsaft-86" value="&lt;b&gt;EMPLEADOS ( &lt;/b&gt;&lt;font style=&quot;color: rgb(255, 51, 51);&quot;&gt;idEmpleado&lt;/font&gt;, nombre, cargo, telefono, &lt;font style=&quot;color: rgb(0, 0, 255);&quot;&gt;correo&lt;/font&gt;, &lt;font style=&quot;color: rgb(255, 128, 0);&quot;&gt;ciudad !&lt;/font&gt;, &lt;font style=&quot;color: rgb(0, 0, 0);&quot;&gt;idSede&lt;/font&gt;&amp;nbsp;&lt;b&gt;)&lt;/b&gt;" style="text;html=1;align=center;verticalAlign=middle;resizable=0;points=[];autosize=1;" parent="1" vertex="1">
          <mxGeometry x="460" y="380" width="450" height="30" as="geometry" />
        </mxCell>
        <mxCell id="bGmUU4ZswMITXSUrsaft-87" value="&lt;b&gt;SEDES ( &lt;/b&gt;&lt;font style=&quot;color: rgb(255, 51, 51);&quot;&gt;idSede&lt;/font&gt;, direccion&lt;b&gt; )&lt;/b&gt;" style="text;html=1;align=center;verticalAlign=middle;resizable=0;points=[];autosize=1;strokeColor=none;fillColor=none;" parent="1" vertex="1">
          <mxGeometry x="885" y="430" width="170" height="30" as="geometry" />
        </mxCell>
        <mxCell id="bGmUU4ZswMITXSUrsaft-88" style="edgeStyle=orthogonalEdgeStyle;rounded=0;orthogonalLoop=1;jettySize=auto;html=1;strokeColor=#009900;" parent="1" edge="1">
          <mxGeometry relative="1" as="geometry">
            <mxPoint x="180" y="319" as="targetPoint" />
            <mxPoint x="220" y="249" as="sourcePoint" />
            <Array as="points">
              <mxPoint x="220" y="278" />
              <mxPoint x="180" y="278" />
            </Array>
          </mxGeometry>
        </mxCell>
        <mxCell id="bGmUU4ZswMITXSUrsaft-89" value="&lt;b&gt;TipoProductos ( &lt;/b&gt;&lt;font style=&quot;color: rgb(255, 51, 51);&quot;&gt;idProveedor, tipoProducto&lt;/font&gt;&lt;b&gt;&lt;font style=&quot;color: rgb(255, 51, 51);&quot;&gt;&amp;nbsp;&lt;/font&gt;)&lt;/b&gt;" style="text;html=1;align=center;verticalAlign=middle;resizable=0;points=[];autosize=1;" parent="1" vertex="1">
          <mxGeometry x="80" y="228" width="260" height="30" as="geometry" />
        </mxCell>
        <mxCell id="bGmUU4ZswMITXSUrsaft-90" value="" style="endArrow=none;html=1;rounded=0;strokeColor=#009900;" parent="1" edge="1">
          <mxGeometry width="50" height="50" relative="1" as="geometry">
            <mxPoint x="164" y="388" as="sourcePoint" />
            <mxPoint x="231" y="388" as="targetPoint" />
          </mxGeometry>
        </mxCell>
        <mxCell id="bGmUU4ZswMITXSUrsaft-91" value="" style="endArrow=none;html=1;rounded=0;strokeColor=#009900;" parent="1" edge="1">
          <mxGeometry width="50" height="50" relative="1" as="geometry">
            <mxPoint x="236" y="402" as="sourcePoint" />
            <mxPoint x="293" y="402" as="targetPoint" />
          </mxGeometry>
        </mxCell>
        <mxCell id="bGmUU4ZswMITXSUrsaft-92" value="" style="endArrow=none;html=1;rounded=0;strokeColor=#009900;" parent="1" edge="1">
          <mxGeometry width="50" height="50" relative="1" as="geometry">
            <mxPoint x="185" y="249" as="sourcePoint" />
            <mxPoint x="250" y="249" as="targetPoint" />
          </mxGeometry>
        </mxCell>
        <mxCell id="bGmUU4ZswMITXSUrsaft-93" value="" style="endArrow=none;html=1;rounded=0;strokeColor=#009900;" parent="1" edge="1">
          <mxGeometry width="50" height="50" relative="1" as="geometry">
            <mxPoint x="230" y="591" as="sourcePoint" />
            <mxPoint x="276" y="591" as="targetPoint" />
          </mxGeometry>
        </mxCell>
        <mxCell id="bGmUU4ZswMITXSUrsaft-94" value="" style="endArrow=none;html=1;rounded=0;strokeColor=#009900;" parent="1" edge="1">
          <mxGeometry width="50" height="50" relative="1" as="geometry">
            <mxPoint x="283" y="578" as="sourcePoint" />
            <mxPoint x="341" y="578" as="targetPoint" />
          </mxGeometry>
        </mxCell>
        <mxCell id="bGmUU4ZswMITXSUrsaft-95" value="" style="endArrow=none;html=1;rounded=0;strokeColor=#009900;" parent="1" edge="1">
          <mxGeometry width="50" height="50" relative="1" as="geometry">
            <mxPoint x="218" y="648" as="sourcePoint" />
            <mxPoint x="283" y="648" as="targetPoint" />
          </mxGeometry>
        </mxCell>
        <mxCell id="bGmUU4ZswMITXSUrsaft-96" value="" style="endArrow=none;html=1;rounded=0;strokeColor=#009900;" parent="1" edge="1">
          <mxGeometry width="50" height="50" relative="1" as="geometry">
            <mxPoint x="290" y="648" as="sourcePoint" />
            <mxPoint x="353" y="648" as="targetPoint" />
          </mxGeometry>
        </mxCell>
        <mxCell id="bGmUU4ZswMITXSUrsaft-97" value="" style="endArrow=none;html=1;rounded=0;strokeColor=#009900;" parent="1" edge="1">
          <mxGeometry width="50" height="50" relative="1" as="geometry">
            <mxPoint x="180" y="528" as="sourcePoint" />
            <mxPoint x="237" y="528" as="targetPoint" />
          </mxGeometry>
        </mxCell>
        <mxCell id="bGmUU4ZswMITXSUrsaft-98" value="" style="endArrow=none;html=1;rounded=0;strokeColor=#009900;" parent="1" edge="1">
          <mxGeometry width="50" height="50" relative="1" as="geometry">
            <mxPoint x="244" y="528" as="sourcePoint" />
            <mxPoint x="283" y="528" as="targetPoint" />
          </mxGeometry>
        </mxCell>
        <mxCell id="bGmUU4ZswMITXSUrsaft-99" value="" style="endArrow=none;html=1;rounded=0;strokeColor=#009900;" parent="1" edge="1">
          <mxGeometry width="50" height="50" relative="1" as="geometry">
            <mxPoint x="638" y="558" as="sourcePoint" />
            <mxPoint x="685" y="558" as="targetPoint" />
          </mxGeometry>
        </mxCell>
        <mxCell id="bGmUU4ZswMITXSUrsaft-100" value="" style="endArrow=none;html=1;rounded=0;strokeColor=#009900;" parent="1" edge="1">
          <mxGeometry width="50" height="50" relative="1" as="geometry">
            <mxPoint x="695" y="558" as="sourcePoint" />
            <mxPoint x="758" y="558" as="targetPoint" />
          </mxGeometry>
        </mxCell>
        <mxCell id="bGmUU4ZswMITXSUrsaft-101" value="" style="endArrow=none;html=1;rounded=0;strokeColor=#009900;" parent="1" edge="1">
          <mxGeometry width="50" height="50" relative="1" as="geometry">
            <mxPoint x="764" y="572" as="sourcePoint" />
            <mxPoint x="814" y="572" as="targetPoint" />
          </mxGeometry>
        </mxCell>
        <mxCell id="bGmUU4ZswMITXSUrsaft-102" value="" style="endArrow=none;html=1;rounded=0;strokeColor=#009900;" parent="1" edge="1">
          <mxGeometry width="50" height="50" relative="1" as="geometry">
            <mxPoint x="821" y="558" as="sourcePoint" />
            <mxPoint x="867" y="558" as="targetPoint" />
          </mxGeometry>
        </mxCell>
        <mxCell id="bGmUU4ZswMITXSUrsaft-103" value="" style="endArrow=none;html=1;rounded=0;strokeColor=#009900;" parent="1" edge="1">
          <mxGeometry width="50" height="50" relative="1" as="geometry">
            <mxPoint x="871" y="688" as="sourcePoint" />
            <mxPoint x="920" y="688" as="targetPoint" />
          </mxGeometry>
        </mxCell>
        <mxCell id="bGmUU4ZswMITXSUrsaft-104" value="" style="endArrow=none;html=1;rounded=0;strokeColor=#009900;" parent="1" edge="1">
          <mxGeometry width="50" height="50" relative="1" as="geometry">
            <mxPoint x="593" y="718" as="sourcePoint" />
            <mxPoint x="643" y="718" as="targetPoint" />
          </mxGeometry>
        </mxCell>
        <mxCell id="bGmUU4ZswMITXSUrsaft-105" value="" style="endArrow=none;html=1;rounded=0;strokeColor=#009900;" parent="1" edge="1">
          <mxGeometry width="50" height="50" relative="1" as="geometry">
            <mxPoint x="851" y="402" as="sourcePoint" />
            <mxPoint x="891" y="402" as="targetPoint" />
          </mxGeometry>
        </mxCell>
        <mxCell id="bGmUU4ZswMITXSUrsaft-106" value="" style="endArrow=none;html=1;rounded=0;strokeColor=#009900;" parent="1" edge="1">
          <mxGeometry width="50" height="50" relative="1" as="geometry">
            <mxPoint x="823" y="249" as="sourcePoint" />
            <mxPoint x="880" y="249" as="targetPoint" />
          </mxGeometry>
        </mxCell>
        <mxCell id="bGmUU4ZswMITXSUrsaft-107" value="" style="endArrow=none;html=1;rounded=0;strokeColor=#009900;" parent="1" edge="1">
          <mxGeometry width="50" height="50" relative="1" as="geometry">
            <mxPoint x="770" y="249" as="sourcePoint" />
            <mxPoint x="815" y="249" as="targetPoint" />
          </mxGeometry>
        </mxCell>
      </root>
    </mxGraphModel>
  </diagram>
</mxfile>
